<?xml version="1.0" encoding="UTF-8" standalone="no"?>
<!-- Created with Inkscape (http://www.inkscape.org/) -->

<svg
   width="210mm"
   height="297mm"
   viewBox="0 0 210 297"
   version="1.1"
   id="svg1"
   inkscape:version="1.4 (86a8ad7, 2024-10-11)"
   sodipodi:docname="Example.svg"
   xmlns:inkscape="http://www.inkscape.org/namespaces/inkscape"
   xmlns:sodipodi="http://sodipodi.sourceforge.net/DTD/sodipodi-0.dtd"
   xmlns="http://www.w3.org/2000/svg"
   xmlns:svg="http://www.w3.org/2000/svg">
  <sodipodi:namedview
     id="namedview1"
     pagecolor="#ffffff"
     bordercolor="#000000"
     borderopacity="0.25"
     inkscape:showpageshadow="2"
     inkscape:pageopacity="0.0"
     inkscape:pagecheckerboard="0"
     inkscape:deskcolor="#d1d1d1"
     inkscape:document-units="mm"
     showguides="true"
     inkscape:zoom="2.8756734"
     inkscape:cx="381.12812"
     inkscape:cy="346.17979"
     inkscape:window-width="1920"
     inkscape:window-height="1009"
     inkscape:window-x="-8"
     inkscape:window-y="-8"
     inkscape:window-maximized="1"
     inkscape:current-layer="layer1" />
  <defs
     id="defs1">
    <rect
       x="260.46073"
       y="81.71999"
       width="54.595908"
       height="36.860931"
       id="rect4" />
  </defs>
  <g
     inkscape:label="Layer 1"
     inkscape:groupmode="layer"
     id="layer1">
    <rect
       style="fill:#858586;stroke:none;stroke-width:0.346929"
       id="rect1"
       width="25.05307"
       height="25.05307"
       x="82.768654"
       y="55.166424"
       ry="0.64030832"
       inkscape:export-filename="Tile.png"
       inkscape:export-xdpi="96"
       inkscape:export-ydpi="96" />
    <path
       id="rect2"
       style="fill:#ececec;stroke:none;stroke-width:0.346929"
       d="m 103.59766,55.701172 c -6.772791,-0.0072 -13.545577,-0.0048 -20.318363,0.002 0.05031,7.987542 -0.0095,15.975324 0.04102,23.962891 7.565071,0.04966 15.139999,0.01236 22.699008,0.01897 0.67769,0.187314 1.44399,-0.322406 1.26608,-1.074441 0.0106,-7.627347 0.0252,-15.254743 -0.0159,-22.882031 -1.22371,-0.04735 -2.44758,-0.04195 -3.67187,-0.02734 z"
       inkscape:export-filename="Tile.png"
       inkscape:export-xdpi="96"
       inkscape:export-ydpi="96" />
    <ellipse
       style="fill:#0000ff;stroke:#000000;stroke-width:0.464934"
       id="path2"
       cx="34.722458"
       cy="30.416136"
       rx="11.012324"
       ry="11.012325"
       inkscape:export-filename="Knight.png"
       inkscape:export-xdpi="96"
       inkscape:export-ydpi="96" />
    <path
       style="fill:#0000ff;stroke:#000000;stroke-width:0.423"
       d="m 35.262021,23.551387 6.961322,6.961321 -7.351675,7.351678"
       id="path3" />
    <path
       id="ellipse3"
       style="fill:none;stroke:#ffe680;stroke-width:0.464934"
       d="m 34.179688,47.469419 c -4.503692,0.179342 -8.767841,3.088405 -10.510813,7.255342 -2.077779,4.583288 -0.829195,10.396428 2.953873,13.717311 3.398955,3.169577 8.687833,4.027595 12.923296,2.123854 4.524909,-1.906885 7.546617,-6.800077 7.221101,-11.700012 -0.197235,-4.474958 -3.109402,-8.689969 -7.249688,-10.4148 -1.67121,-0.729606 -3.515299,-1.077585 -5.337769,-0.981695 z"
       inkscape:export-filename="Highlight.png"
       inkscape:export-xdpi="96"
       inkscape:export-ydpi="96" />
    <path
       id="path4"
       style="fill:#333333;stroke:#808080;stroke-width:0.464934;fill-opacity:0.4078624"
       d="m 67.762401,20.971278 c -4.503692,0.179342 -8.767841,3.088405 -10.510813,7.255342 -2.077779,4.583288 -0.829195,10.396428 2.953873,13.717311 3.398955,3.169577 8.687833,4.027595 12.923296,2.123854 4.524909,-1.906885 7.546617,-6.800077 7.221101,-11.700012 -0.197235,-4.474958 -3.109402,-8.689969 -7.249688,-10.4148 -1.67121,-0.729606 -3.515299,-1.077585 -5.337769,-0.981695 z"
       inkscape:export-filename="TiredHighlight.png"
       inkscape:export-xdpi="96"
       inkscape:export-ydpi="96" />
    <text
       xml:space="preserve"
       id="text4"
       style="font-size:26.6667px;font-family:Verdana;-inkscape-font-specification:Verdana;text-align:justify;writing-mode:lr-tb;direction:ltr;white-space:pre;shape-inside:url(#rect4);display:inline;fill:none;stroke:#ffffff;stroke-width:1.59874"
       transform="matrix(0.26458333,0,0,0.26458333,-6.2565056,7.1765799)"><tspan
         x="260.46094"
         y="106.04954"
         id="tspan1">zzz</tspan></text>
    <path
       id="path5"
       style="fill:none;stroke:none;stroke-width:0.346929"
       d="m 103.04483,84.981608 c -6.772794,-0.0072 -13.545574,-0.0048 -20.318364,0.002 0.0503,7.987542 -0.01,15.975322 0.041,23.962892 7.56507,0.0497 15.14,0.0124 22.699014,0.019 0.67769,0.18731 1.44399,-0.32241 1.26608,-1.07444 0.0106,-7.62735 0.0252,-15.254745 -0.0159,-22.882033 -1.22371,-0.04735 -2.44758,-0.04195 -3.67187,-0.02734 z"
       inkscape:export-filename="Art\Attacks\KnightAttack.png"
       inkscape:export-xdpi="96"
       inkscape:export-ydpi="96" />
    <circle
       style="fill:#ff0000;fill-opacity:1;stroke:#000000;stroke-width:0.510076"
       id="path14"
       cx="94.741463"
       cy="96.988136"
       r="9.9852724" />
    <g
       id="g7"
       transform="translate(-30.187414,64.798845)">
      <path
         style="fill:#333333;fill-opacity:0.407862;stroke:#808080;stroke-width:0.423"
         d="m 124.00261,37.083677 c 0.19518,0.520472 0,3.773426 0,3.773426 h 2.40718 V 36.82344 h -4.09872 l -0.7586,1.313942 h 6.74404 l -0.81963,-1.340093 z"
         id="path6"
         sodipodi:nodetypes="ccccccccc" />
      <path
         style="fill:#00ffff;fill-opacity:0.407862;stroke:#808080;stroke-width:0.423"
         d="m 124.3279,24.982687 c 0,0.390354 -0.3253,11.905811 -0.3253,11.905811 l 2.47225,-0.06506 -0.26024,-12.426285 -1.106,-0.780709 z"
         id="path7" />
    </g>
    <ellipse
       style="fill:#c83737;stroke:#000000;stroke-width:0.464934"
       id="ellipse7"
       cx="34.722458"
       cy="2.6298904"
       rx="11.012324"
       ry="11.012325"
       inkscape:export-filename="Thief.png"
       inkscape:export-xdpi="96"
       inkscape:export-ydpi="96" />
    <path
       style="fill:#c83737;stroke:#000000;stroke-width:0.423;fill-opacity:1"
       d="m 35.262021,-4.2348584 6.961322,6.961321 -7.351675,7.3516784"
       id="path8" />
    <ellipse
       style="fill:#800080;stroke:#000000;stroke-width:0.464934"
       id="ellipse8"
       cx="34.722458"
       cy="-24.788324"
       rx="11.012324"
       ry="11.012325"
       inkscape:export-filename="Mage.png"
       inkscape:export-xdpi="96"
       inkscape:export-ydpi="96" />
    <path
       style="fill:#c83737;fill-opacity:1;stroke:#000000;stroke-width:0.313233"
       d="m 36.686043,-30.403779 5.15488,5.154879 -5.443938,5.44394"
       id="path9" />
    <ellipse
       style="fill:#ff8080;stroke:#000000;stroke-width:0.464934"
       id="ellipse9"
       cx="9.3494158"
       cy="-24.788324"
       rx="11.012324"
       ry="11.012325"
       inkscape:export-filename="Barbarian.png"
       inkscape:export-xdpi="96"
       inkscape:export-ydpi="96" />
    <path
       style="fill:#c83737;fill-opacity:1;stroke:#000000;stroke-width:0.313233"
       d="m 11.313001,-30.403779 5.15488,5.154879 -5.443938,5.44394"
       id="path10" />
    <path
       style="fill:#c83737;fill-opacity:1;stroke:none;stroke-width:0.423"
       d="m 4.5541356,-19.517723 0.3903546,-3.643309 3.6433085,1.821654 c 0,0 0.2602362,-1.561418 1.0409455,-1.561418 0.7807088,0 3.9035448,1.040945 3.9035448,1.040945 0,0 1.301181,-1.691536 1.431299,-0.260236 0.130118,1.4313 -0.65059,4.814372 -0.65059,4.814372 l -2.081891,-0.390354 -2.3421268,0.650591 -1.1710634,-2.472245 -2.0818906,2.08189 -1.0409452,-1.561418 z"
       id="path11" />
    <circle
       style="fill:#ff0000;fill-opacity:1;stroke:#ffffff;stroke-width:0.423"
       id="path12"
       cx="71.146774"
       cy="-1.633809"
       r="2.7602229"
       inkscape:export-filename="Art\AttackPreviewHighlight.png"
       inkscape:export-xdpi="96"
       inkscape:export-ydpi="96" />
    <rect
       style="fill:#858586;stroke:none;stroke-width:0.346929"
       id="rect13"
       width="25.05307"
       height="25.05307"
       x="115.94878"
       y="55.166424"
       ry="0.64030832"
       inkscape:export-filename="Art\TileDirt.png"
       inkscape:export-xdpi="96"
       inkscape:export-ydpi="96" />
    <path
       id="path13"
       style="fill:#a0892c;stroke:none;stroke-width:0.346929"
       d="m 136.77779,55.701172 c -6.77279,-0.0072 -13.54558,-0.0048 -20.31836,0.002 0.0503,7.987542 -0.01,15.975324 0.041,23.962891 7.56507,0.04966 15.14,0.01236 22.69901,0.01897 0.67769,0.187314 1.44399,-0.322406 1.26608,-1.074441 0.0106,-7.627347 0.0252,-15.254743 -0.0159,-22.882031 -1.22371,-0.04735 -2.44758,-0.04195 -3.67187,-0.02734 z"
       inkscape:export-filename="Tile.png"
       inkscape:export-xdpi="96"
       inkscape:export-ydpi="96" />
  </g>
</svg>
